<svg width="89" height="9" viewBox="0 0 89 9" fill="none" xmlns="http://www.w3.org/2000/svg">
<path d="M3.46271 8.94471L3.57635 5.81971L0.934304 7.49585L0.252486 6.30267L3.03658 4.8538L0.252486 3.40494L0.934304 2.21176L3.57635 3.88789L3.46271 0.762895H4.82635L4.71271 3.88789L7.35476 2.21176L8.03658 3.40494L5.25249 4.8538L8.03658 6.30267L7.35476 7.49585L4.71271 5.81971L4.82635 8.94471H3.46271ZM13.4627 8.94471L13.5763 5.81971L10.9343 7.49585L10.2525 6.30267L13.0366 4.8538L10.2525 3.40494L10.9343 2.21176L13.5763 3.88789L13.4627 0.762895H14.8263L14.7127 3.88789L17.3548 2.21176L18.0366 3.40494L15.2525 4.8538L18.0366 6.30267L17.3548 7.49585L14.7127 5.81971L14.8263 8.94471H13.4627ZM23.4627 8.94471L23.5763 5.81971L20.9343 7.49585L20.2525 6.30267L23.0366 4.8538L20.2525 3.40494L20.9343 2.21176L23.5763 3.88789L23.4627 0.762895H24.8263L24.7127 3.88789L27.3548 2.21176L28.0366 3.40494L25.2525 4.8538L28.0366 6.30267L27.3548 7.49585L24.7127 5.81971L24.8263 8.94471H23.4627ZM33.4627 8.94471L33.5763 5.81971L30.9343 7.49585L30.2525 6.30267L33.0366 4.8538L30.2525 3.40494L30.9343 2.21176L33.5763 3.88789L33.4627 0.762895H34.8263L34.7127 3.88789L37.3548 2.21176L38.0366 3.40494L35.2525 4.8538L38.0366 6.30267L37.3548 7.49585L34.7127 5.81971L34.8263 8.94471H33.4627ZM43.4627 8.94471L43.5763 5.81971L40.9343 7.49585L40.2525 6.30267L43.0366 4.8538L40.2525 3.40494L40.9343 2.21176L43.5763 3.88789L43.4627 0.762895H44.8263L44.7127 3.88789L47.3548 2.21176L48.0366 3.40494L45.2525 4.8538L48.0366 6.30267L47.3548 7.49585L44.7127 5.81971L44.8263 8.94471H43.4627ZM53.4627 8.94471L53.5763 5.81971L50.9343 7.49585L50.2525 6.30267L53.0366 4.8538L50.2525 3.40494L50.9343 2.21176L53.5763 3.88789L53.4627 0.762895H54.8263L54.7127 3.88789L57.3548 2.21176L58.0366 3.40494L55.2525 4.8538L58.0366 6.30267L57.3548 7.49585L54.7127 5.81971L54.8263 8.94471H53.4627ZM63.4627 8.94471L63.5763 5.81971L60.9343 7.49585L60.2525 6.30267L63.0366 4.8538L60.2525 3.40494L60.9343 2.21176L63.5763 3.88789L63.4627 0.762895H64.8263L64.7127 3.88789L67.3548 2.21176L68.0366 3.40494L65.2525 4.8538L68.0366 6.30267L67.3548 7.49585L64.7127 5.81971L64.8263 8.94471H63.4627ZM73.4627 8.94471L73.5763 5.81971L70.9343 7.49585L70.2525 6.30267L73.0366 4.8538L70.2525 3.40494L70.9343 2.21176L73.5763 3.88789L73.4627 0.762895H74.8263L74.7127 3.88789L77.3548 2.21176L78.0366 3.40494L75.2525 4.8538L78.0366 6.30267L77.3548 7.49585L74.7127 5.81971L74.8263 8.94471H73.4627ZM83.4627 8.94471L83.5763 5.81971L80.9343 7.49585L80.2525 6.30267L83.0366 4.8538L80.2525 3.40494L80.9343 2.21176L83.5763 3.88789L83.4627 0.762895H84.8263L84.7127 3.88789L87.3548 2.21176L88.0366 3.40494L85.2525 4.8538L88.0366 6.30267L87.3548 7.49585L84.7127 5.81971L84.8263 8.94471H83.4627Z" fill="black"/>
</svg>
